<?xml version="1.0" encoding="utf-8"?>
<!-- Generator: Adobe Illustrator 17.1.0, SVG Export Plug-In . SVG Version: 6.00 Build 0)  -->
<!DOCTYPE svg PUBLIC "-//W3C//DTD SVG 1.1//EN" "http://www.w3.org/Graphics/SVG/1.1/DTD/svg11.dtd">
<svg version="1.1" id="Layer_1" xmlns="http://www.w3.org/2000/svg" xmlns:xlink="http://www.w3.org/1999/xlink" x="0px" y="0px"
	 viewBox="0 0 250 200" enable-background="new 0 0 250 200" xml:space="preserve">
<g>
	<path fill="#FCF3E8" d="M243.458,109.234c1.033,2.754-0.125,6.343-2.572,7.975L129.457,191.5c-2.447,1.632-6.453,1.632-8.9,0
		L9.114,117.209c-2.448-1.632-3.605-5.22-2.572-7.974l36.356-96.95c1.033-2.754,4.285-5.008,7.226-5.008h149.752
		c2.942,0,6.193,2.253,7.226,5.008L243.458,109.234z"/>
	<g>
		<path fill="#F98728" d="M81.492,34.941c-1.413,0.408-3.59,0.106-4.838-0.672L59.838,23.786c-1.248-0.778-2.702-0.292-3.23,1.081
			l-30.927,80.299c-0.529,1.373,0.033,3.174,1.247,4.003l95.863,65.457c1.215,0.829,3.202,0.829,4.417,0l95.863-65.457
			c1.215-0.829,1.776-2.631,1.247-4.003l-30.927-80.299c-0.529-1.372-1.982-1.859-3.23-1.081l-16.816,10.483
			c-1.248,0.778-3.425,1.081-4.838,0.672l-40.939-11.828c-1.413-0.408-3.725-0.408-5.138,0L81.492,34.941z"/>
		<g>
			<g>
				<path fill="#CE5F15" d="M122.829,137.194c1.194,0.859,3.148,0.859,4.342,0l19.588-12.166c1.194-0.859,0.968-1.562-0.503-1.562
					h-42.511c-1.471,0-1.697,0.703-0.503,1.562L122.829,137.194z"/>
			</g>
			<g>
				<path fill="#CE5F15" d="M73.095,73.317c-1.162-0.901-0.962-1.288,0.445-0.859l34.473,10.497c1.407,0.428,2.634,1.98,2.726,3.448
					l0.897,14.251c0.092,1.468-0.783,1.932-1.946,1.031L73.095,73.317z"/>
			</g>
			<g>
				<path fill="#CE5F15" d="M46.527,51.039l12.368-3.209c1.431-0.361,2.26-1.818,1.845-3.236l-5.054-17.355L46.527,51.039z"/>
			</g>
			<path fill="#CE5F15" d="M56.529,129.391l13.371,9.119l12.943-21.634c0.749-1.27,0.308-1.738-0.989-1.043L56.529,129.391z"/>
			<path fill="#CE5F15" d="M32.141,112.731l17.355,11.846l13.665-34.256c0.548-1.364,0.04-1.752-1.11-0.842L32.141,112.731z"/>
			<path fill="#CE5F15" d="M100.251,29.512l14.721,8.223c1.284,0.709,1.925,0.16,1.417-1.217l-3.851-10.549L100.251,29.512z"/>
			<g>
				<path fill="#CE5F15" d="M203.473,51.039l-12.368-3.209c-1.431-0.361-2.26-1.818-1.845-3.236l5.054-17.355L203.473,51.039z"/>
			</g>
			<path fill="#CE5F15" d="M193.471,129.391l-13.371,9.119l-12.943-21.634c-0.749-1.27-0.308-1.738,0.989-1.043L193.471,129.391z"/>
			<path fill="#CE5F15" d="M217.859,112.731l-17.355,11.846l-13.665-34.256c-0.548-1.364-0.04-1.752,1.11-0.842L217.859,112.731z"/>
			<path fill="#CE5F15" d="M149.749,29.512l-14.721,8.223c-1.284,0.709-1.925,0.16-1.417-1.217l3.851-10.549L149.749,29.512z"/>
			<g>
				<path fill="#CE5F15" d="M176.905,73.317c1.162-0.901,0.962-1.288-0.445-0.859l-34.473,10.497
					c-1.407,0.428-2.634,1.98-2.726,3.448l-0.897,14.251c-0.092,1.468,0.783,1.932,1.946,1.031L176.905,73.317z"/>
			</g>
		</g>
	</g>
</g>
</svg>
