<?xml version="1.0" encoding="utf-8"?>
<!-- Generator: Adobe Illustrator 16.0.0, SVG Export Plug-In . SVG Version: 6.00 Build 0)  -->
<!DOCTYPE svg PUBLIC "-//W3C//DTD SVG 1.1//EN" "http://www.w3.org/Graphics/SVG/1.1/DTD/svg11.dtd">
<svg version="1.1" id="Layer_1" xmlns="http://www.w3.org/2000/svg" xmlns:xlink="http://www.w3.org/1999/xlink" x="0px" y="0px"
	 width="395px" height="64px" viewBox="0 0 395 64" enable-background="new 0 0 395 64" xml:space="preserve">
<g>
	<defs>
		<rect id="SVGID_1_" x="-122" y="-179.333" width="800" height="600"/>
	</defs>
	<clipPath id="SVGID_2_">
		<use xlink:href="#SVGID_1_"  overflow="visible"/>
	</clipPath>
	<path clip-path="url(#SVGID_2_)" fill="#C53C02" d="M46.971,10.259c0.922,0.396,1.716,0.915,2.382,1.56
		c0.665,0.645,1.201,1.414,1.609,2.308c0.408,0.894,0.612,1.84,0.612,2.838v36.332c0,0.334-0.119,0.614-0.354,0.842
		c-0.237,0.23-0.526,0.344-0.869,0.344h-8.949c-0.344,0-0.622-0.114-0.836-0.344c-0.216-0.228-0.322-0.508-0.322-0.842V20.271h-7.21
		v33.026c0,0.334-0.108,0.614-0.322,0.842c-0.216,0.23-0.494,0.344-0.837,0.344h-8.112c-0.344,0-0.633-0.114-0.869-0.344
		c-0.236-0.228-0.354-0.508-0.354-0.842V20.271h-7.21v33.026c0,0.791-0.408,1.186-1.223,1.186H5.223C4.407,54.483,4,54.088,4,53.297
		V10.852c0-0.79,0.407-1.186,1.223-1.186h38.819C45.072,9.666,46.048,9.864,46.971,10.259"/>
	<path clip-path="url(#SVGID_2_)" fill="#751B00" d="M46.971,10.259c0.922,0.396,1.716,0.915,2.382,1.56
		c0.665,0.645,1.201,1.414,1.609,2.308c0.408,0.894,0.612,1.84,0.612,2.838v3.238l-11.33,0.068h-7.21H22.54h-7.21L4,20.203v-9.351
		c0-0.79,0.407-1.186,1.223-1.186h38.819C45.072,9.666,46.048,9.864,46.971,10.259"/>
	<path clip-path="url(#SVGID_2_)" fill="#265A8F" d="M90.591,43.603c0.363,0,0.659,0.118,0.887,0.352
		c0.227,0.235,0.341,0.523,0.341,0.865v8.452c0,0.342-0.114,0.63-0.341,0.864c-0.228,0.235-0.524,0.352-0.887,0.352H59.943
		c-0.864,0-1.296-0.405-1.296-1.216V10.883c0-0.81,0.432-1.216,1.296-1.216h9.411c0.863,0,1.296,0.406,1.296,1.216V42.45
		c0,0.343,0.125,0.62,0.375,0.833c0.249,0.214,0.556,0.32,0.921,0.32H90.591z"/>
	<path clip-path="url(#SVGID_2_)" fill="#162F51" d="M70.551,54.488H59.939c-0.862,0-1.292-0.405-1.292-1.217V10.883
		c0-0.81,0.43-1.217,1.292-1.217h9.39c0.861,0,1.293,0.407,1.293,1.217V42.45C70.623,42.792,70.551,54.488,70.551,54.488"/>
	<path clip-path="url(#SVGID_2_)" fill="#FDEE00" d="M137.697,9.667c0.365,0,0.674,0.118,0.926,0.353
		c0.251,0.236,0.377,0.525,0.377,0.867v42.508c0,0.344-0.126,0.633-0.377,0.867c-0.252,0.236-0.561,0.353-0.926,0.353h-9.533
		c-0.366,0-0.675-0.117-0.926-0.353c-0.251-0.234-0.377-0.523-0.377-0.867V38.562c0-0.342-0.114-0.62-0.343-0.834
		c-0.229-0.214-0.526-0.321-0.891-0.321h-13.372c-0.366,0-0.675,0.107-0.926,0.321c-0.251,0.214-0.377,0.492-0.377,0.834v14.833
		c0,0.814-0.435,1.22-1.303,1.22h-9.464c-0.869,0-1.303-0.406-1.303-1.22V10.887c0-0.813,0.434-1.22,1.303-1.22h9.464
		c0.868,0,1.303,0.407,1.303,1.22v14.384c0,0.813,0.434,1.22,1.303,1.22h13.372c0.365,0,0.662-0.118,0.891-0.354
		c0.229-0.234,0.343-0.523,0.343-0.866V10.887c0-0.342,0.126-0.631,0.377-0.867c0.251-0.235,0.56-0.353,0.926-0.353H137.697z"/>
	<path clip-path="url(#SVGID_2_)" fill="#ECC700" d="M110.952,38.562v14.833c0,0.814-0.435,1.22-1.303,1.22h-9.464
		c-0.869,0-1.303-0.406-1.303-1.22V10.887c0-0.813,0.434-1.22,1.303-1.22h9.464c0.868,0,1.303,0.407,1.303,1.22V25.27V38.562z"/>
	<path clip-path="url(#SVGID_2_)" fill="#ECC700" d="M137.697,9.667c0.365,0,0.674,0.118,0.926,0.353
		c0.251,0.236,0.377,0.525,0.377,0.867v42.508c0,0.343-0.126,0.632-0.377,0.867c-0.252,0.236-0.561,0.353-0.926,0.353h-9.533
		c-0.366,0-0.675-0.117-0.926-0.353c-0.251-0.235-0.377-0.524-0.377-0.867V38.562V25.271V10.887c0-0.342,0.126-0.631,0.377-0.867
		c0.251-0.235,0.56-0.353,0.926-0.353H137.697z"/>
	<line clip-path="url(#SVGID_2_)" fill="none" stroke="#ADB2B7" stroke-miterlimit="10" x1="157" y1="0.667" x2="157" y2="63.667"/>
	<path clip-path="url(#SVGID_2_)" fill="#353535" d="M195.107,54.688l-15.414-39.909h-0.249c0.29,3.162,0.436,6.919,0.436,11.271
		v28.638H175V9.667h7.956l14.389,37.137h0.248l14.513-37.137H220v45.021h-5.283V25.679c0-3.326,0.145-6.939,0.435-10.839h-0.249
		l-15.538,39.847H195.107z"/>
	<path clip-path="url(#SVGID_2_)" fill="#353535" d="M285.106,54.688l-15.414-39.909h-0.249c0.29,3.162,0.436,6.919,0.436,11.271
		v28.638H265V9.667h7.956l14.389,37.137h0.248l14.513-37.137H310v45.021h-5.283V25.679c0-3.326,0.145-6.939,0.435-10.839h-0.249
		l-15.537,39.847H285.106z"/>
	<path clip-path="url(#SVGID_2_)" fill="#353535" d="M228.718,18.36h4.724l6.369,16.587c1.398,3.786,2.265,6.52,2.601,8.2h0.212
		c0.23-0.902,0.712-2.446,1.447-4.631c0.733-2.185,3.135-8.904,7.204-20.156H256l-12.5,33.12c-1.239,3.273-2.685,5.595-4.339,6.966
		c-1.655,1.371-3.685,2.057-6.091,2.057c-1.344,0-2.672-0.15-3.98-0.451v-3.53c0.972,0.213,2.06,0.319,3.264,0.319
		c3.025,0,5.183-1.699,6.475-5.095l1.619-4.14L228.718,18.36z"/>
	<polygon clip-path="url(#SVGID_2_)" fill="#353535" points="319,54.688 319,9.667 324.215,9.667 324.215,49.945 346,49.945
		346,54.688 	"/>
	<polygon clip-path="url(#SVGID_2_)" fill="#353535" points="391,54.688 385.486,54.688 385.486,33.501 360.514,33.501
		360.514,54.688 355,54.688 355,9.667 360.514,9.667 360.514,28.82 385.486,28.82 385.486,9.667 391,9.667 	"/>
</g>
</svg>
