<svg id="Logo" xmlns="http://www.w3.org/2000/svg" viewBox="0 0 545.5 532.85"><defs><style>.cls-3{fill:#fff}</style></defs><path d="M158.84 30.87l-107.72 63A31.57 31.57 0 0 0 35.5 121.1v190.11a23.18 23.18 0 0 0 11.47 20l383.75 224.87a25.66 25.66 0 0 0 25.91 0L570.18 490A21.78 21.78 0 0 0 581 471.15V275.09a28 28 0 0 0-13.9-24.19L189.18 30.84a30.1 30.1 0 0 0-30.34.03z" transform="translate(-35.5 -26.75)" fill="#f48523"/><path d="M577.25 261.1L457.5 331.9a26.86 26.86 0 0 0-13.21 23.1l-.61 204.65c8.16-.22 11.78-2.72 17.05-5.88l106.93-62.28A26.86 26.86 0 0 0 581 468.23V273.5c-.73-7.35-2.47-10.11-3.75-12.4z" transform="translate(-35.5 -26.75)" fill="#d97227"/><path class="cls-3" d="M197.33 233.17l-4.83-2.67-35 124.5 4.33 2.5 10.5-37 45.5 26.5 9.67 48.83 4.17 2.17zM173.83 315l20.75-75 21.25 99.67z" transform="translate(-35.5 -26.75)"/><path class="cls-3" d="M298.5 285.5l-3.87-1.38v144.96l3.87 2.17v-55.17l14.83-12.5 42.5 101 4.5 1.67-44-105.5 41.34-40.5-5.67-3.67-53.33 52.5-.17-83.58z"/><path class="cls-3" d="M305 340.67l4 1.16s-.33-18.83-5.25-30.33-12.17-24.5-22.17-31.42-12.83-7.08-17.41-7-11.42 2.84-15.84 11.92c-4.73 9.73-6.09 18.67-6.16 29.92-.2 29-.3 43.47.43 48.33 2.64 17.5 5.31 35.28 18.52 51.13 10.62 12.72 21 15.75 26 16.12a17.93 17.93 0 0 0 10-1.76 19.1 19.1 0 0 0 6.24-5.74c3.5-4.62 5.24-13 5.62-17.38s.5-7 .5-7l-4.15-1.62s.34 16.17-5.75 22.25-12.83 7-19.41 3.33c-14.59-8.12-23.59-25.91-23.59-25.91-6.29-12.95-7.64-23.54-9.57-38.72-1.32-10.36-1-22.36-.26-46.37 0 0-.13-15.63 7.08-25.25 5.25-7 8.75-6.83 11.17-7s8-.16 14.83 5.67 12.84 11.67 17.09 21c5.12 11.25 7.2 20.23 7.58 23.08a65.78 65.78 0 0 1 .5 11.59z" transform="translate(-35.5 -26.75)"/><path class="cls-3" d="M44.13 137.37L40 136.25v144l4.13 2.5v-71.38l58.75 34.38v71.5l3.79 1.67V174.25l-4-1.5v66.67l-58.67-34 .13-68.05zm159.04 39.38l91.66-52.33 19.84 11.33-92.34 53-19.16-12z"/><path class="cls-3" d="M376.67 215.5l19.66 11s8.67-4.83 12.5-12.5.34-16.83-5.66-21.17-14.5-10.66-28.67-12.16-32.67.83-49.33 8.66-31.67 19.34-34.5 26.17c-1 2.3-3.11 8.44-.77 14.92 1.89 5.26 5.84 8.14 9.77 10.91 7.87 5.57 15.66 7 22.16 8.2a70.76 70.76 0 0 0 20.84.8c19.5-2.16 24.83-7.5 24.83-7.5l-20-12s-10.83 7.34-19.83 4.17-14.5-5.67-13.34-12.83 29.17-20.5 35.84-23 14-5.17 23-3.5c5.76 1.06 12.21 8.07 10.83 13.5-1 4.01-6 5.88-7.33 6.33z" transform="translate(-35.5 -26.75)"/><path class="cls-3" d="M420.75 197.5l-19.25-11.75L310 239l19.75 11.25 24.25-14 16.75-.75L354 265l23.25 12.75L401.5 233l67.75-7.25L445 211l-63 9 38.75-22.5z"/><path class="cls-3" d="M290.33 128.33c-6.5-4-34.83-20.33-34.83-20.33l-91.83 52.17 19.5 11.66 32.16-18.66 10.34 6.33-18.5 26.33 22.23 12.5 19.93-31.5 4.5.34c4.5.33 13.84.66 22.17-1s25.83-9.5 26.33-19.84-5.5-14-12-18zM272 147c-4.5 3.38-13.5 9-21.62 5.62A143.34 143.34 0 0 1 233 143.5l24.87-14.25s11.37 6 14.12 8.13 4.51 6.24.01 9.62zm-50-58c-6.5-5-39-23.33-39-23.33l-92.17 52.5s16.84 10.66 31.17 18.5 22 9.66 36.5 9.66 28-9.33 30.83-15.83-1.33-10.17-1.33-10.17 3.67 1 12.5.84S220.17 116 226.33 109s2.17-15-4.33-20zm-57.46 35.39c-4 2.92-12 7.8-19.28 4.87s-18.43-8.91-18.43-8.91L149 108s13.09 6.2 15.54 8 4.01 5.46 0 8.39zm35.4-21.17c-4 2.93-12 7.8-19.28 4.88s-18.42-8.91-18.42-8.91l22.16-12.36s13.09 6.21 15.54 8 4.06 5.47 0 8.39z" transform="translate(-35.5 -26.75)"/><path class="cls-3" d="M430.5 351.75l9.5-5.5 42.25 90 35.75-137 10.5-5.75-41 161.75-8 4.75-49-108.25z"/></svg>