<svg xmlns="http://www.w3.org/2000/svg" viewBox="0 0 250 200"><path fill="#FCF3E8" d="M243.458 109.234c1.033 2.754-.125 6.343-2.572 7.975L129.457 191.5c-2.447 1.632-6.453 1.632-8.9 0L9.114 117.209c-2.448-1.632-3.605-5.22-2.572-7.974l36.356-96.95c1.033-2.754 4.285-5.008 7.226-5.008h149.752c2.942 0 6.193 2.253 7.226 5.008l36.356 96.949z"/><path fill="#F98728" d="M81.492 34.941c-1.413.408-3.59.106-4.838-.672L59.838 23.786c-1.248-.778-2.702-.292-3.23 1.081l-30.927 80.299c-.529 1.373.033 3.174 1.247 4.003l95.863 65.457c1.215.829 3.202.829 4.417 0l95.863-65.457c1.215-.829 1.776-2.631 1.247-4.003l-30.927-80.299c-.529-1.372-1.982-1.859-3.23-1.081l-16.816 10.483c-1.248.778-3.425 1.081-4.838.672l-40.939-11.828c-1.413-.408-3.725-.408-5.138 0L81.492 34.941z"/><path fill="#CE5F15" d="M122.829 137.194c1.194.859 3.148.859 4.342 0l19.588-12.166c1.194-.859.968-1.562-.503-1.562h-42.511c-1.471 0-1.697.703-.503 1.562l19.587 12.166zM73.095 73.317c-1.162-.901-.962-1.288.445-.859l34.473 10.497c1.407.428 2.634 1.98 2.726 3.448l.897 14.251c.092 1.468-.783 1.932-1.946 1.031L73.095 73.317zM46.527 51.039l12.368-3.209a2.573 2.573 0 001.845-3.236l-5.054-17.355-9.159 23.8zm10.002 78.352L69.9 138.51l12.943-21.634c.749-1.27.308-1.738-.989-1.043l-25.325 13.558zm-24.388-16.66l17.355 11.846 13.665-34.256c.548-1.364.04-1.752-1.11-.842l-29.91 23.252zm68.11-83.219l14.721 8.223c1.284.709 1.925.16 1.417-1.217l-3.851-10.549-12.287 3.543zm103.222 21.527l-12.368-3.209a2.573 2.573 0 01-1.845-3.236l5.054-17.355 9.159 23.8zm-10.002 78.352L180.1 138.51l-12.943-21.634c-.749-1.27-.308-1.738.989-1.043l25.325 13.558zm24.388-16.66l-17.355 11.846-13.665-34.256c-.548-1.364-.04-1.752 1.11-.842l29.91 23.252zm-68.11-83.219l-14.721 8.223c-1.284.709-1.925.16-1.417-1.217l3.851-10.549 12.287 3.543zm27.156 43.805c1.162-.901.962-1.288-.445-.859l-34.473 10.497c-1.407.428-2.634 1.98-2.726 3.448l-.897 14.251c-.092 1.468.783 1.932 1.946 1.031l36.595-28.368z"/></svg>