<svg width="1416" height="548" viewBox="0 0 1416 548" xmlns="http://www.w3.org/2000/svg"><g fill-rule="evenodd"><path d="M420 135V30c0-16.569-13.433-30-30-30H30C13.431 0 0 13.431 0 30v465c0 16.567 13.431 30 30 30h360c16.567 0 30-13.433 30-30V390h-90v30c0 8.284-6.715 15-15 15H105c-8.284 0-15-6.716-15-15V105c0-8.284 6.716-15 15-15h210c8.285 0 15 6.716 15 15v30h90z"/><path d="M292.5 119.999H127.501a7.499 7.499 0 00-7.5 7.5V285a7.498 7.498 0 007.5 7.499h101.25a3.75 3.75 0 013.75 3.751v44.999a3.75 3.75 0 01-3.75 3.75H191.25a3.75 3.75 0 01-3.75-3.75V322.5h-67.499v75a7.5 7.5 0 007.5 7.5H292.5a7.5 7.5 0 007.5-7.5V240c0-4.143-3.357-7.5-7.5-7.5H191.25a3.75 3.75 0 01-3.75-3.75l-.001-45a3.75 3.75 0 013.75-3.75h37.501a3.75 3.75 0 013.75 3.75l.001 18.75H300v-75.001c0-4.143-3.357-7.5-7.5-7.5zM420 300v60h-90V165h90v60h30V0h90v525h-90V300h-30z"/><text font-family="Helvetica" font-size="180" font-weight="bold"><tspan x="566" y="132">Computer</tspan> <tspan x="566" y="329">Science</tspan> <tspan x="566" y="526">House</tspan></text></g></svg>