<svg data-name="Layer 1" xmlns="http://www.w3.org/2000/svg" width="1115.577" height="564.508" viewBox="0 0 1115.577 564.508"><circle cx="1054.392" cy="123.039" r="61.186" fill="#ff6584"/><path fill="#3f3d56" stroke="#3f3d56" stroke-miterlimit="10" stroke-width="2" d="M821.337 524.691V413.703"/><circle cx="821.337" cy="413.703" r="15.695" fill="#3f3d56"/><path d="M821.337 482.107s-2.242-48.225-48.207-42.62" fill="#3f3d56"/><path fill="#3f3d56" stroke="#3f3d56" stroke-miterlimit="10" stroke-width="2" d="M1042.43 525.47V155.264"/><circle cx="1042.43" cy="155.088" r="15.695" fill="#3f3d56"/><circle cx="994.223" cy="422.934" r="15.695" fill="#3f3d56"/><path d="M1042.43 235.261s-2.242-48.225-48.207-42.62m48.207 179.332s-2.242-48.225-48.207-42.62" fill="#3f3d56"/><path d="M1042.43 521.155s10.09-93.736-48.207-98.22" fill="none" stroke="#3f3d56" stroke-miterlimit="10" stroke-width="2"/><circle cx="1090.644" cy="422.934" r="15.695" fill="#3f3d56"/><path d="M1042.437 521.155s-10.09-93.736 48.207-98.22" fill="none" stroke="#3f3d56" stroke-miterlimit="10" stroke-width="2"/><circle cx="1091.6" cy="275.706" r="15.695" fill="#3f3d56"/><path d="M1043.393 368.927s-10.09-88.737 48.207-93.22" fill="none" stroke="#3f3d56" stroke-miterlimit="10" stroke-width="2"/><path fill="#3f3d56" stroke="#3f3d56" stroke-miterlimit="10" stroke-width="2" d="M938.447 524.948V298.971"/><circle cx="938.447" cy="298.971" r="15.695" fill="#3f3d56"/><path d="M938.447 362.89s-2.242-48.224-48.207-42.619" fill="#3f3d56"/><path d="M938.447 520.633s10.09-92.736-48.207-97.22" fill="none" stroke="#3f3d56" stroke-miterlimit="10" stroke-width="2"/><circle cx="890.24" cy="423.412" r="15.695" fill="#3f3d56"/><path fill="none" stroke="#3f3d56" stroke-miterlimit="10" stroke-width="2" d="M765.295 524.73h324M196.77 1h447.526v523.113H196.77zm0 45.166h447.526"/><circle cx="623.899" cy="23.796" r="7.799" fill="#fff" stroke="#000" stroke-miterlimit="10"/><path fill="#fff" stroke="#000" stroke-miterlimit="10" d="M620.39 20.287l7.019 7.019m0-7.019l-7.019 7.019"/><circle cx="623.899" cy="23.796" r="7.799" fill="none" stroke="#3f3d56" stroke-miterlimit="10" stroke-width="2"/><path fill="none" stroke="#3f3d56" stroke-miterlimit="10" stroke-width="2" d="M620.39 20.287l7.019 7.019m0-7.019l-7.019 7.019"/><path fill="#3f3d56" d="M229.165 18.997h69.588v9.598h-69.588zm121.18 0h69.588v9.598h-69.588zm121.18 0h69.588v9.598h-69.588zm-172.771 97.184h242.36v28.795h-242.36z"/><path fill="#6c63ff" d="M223.166 225.363h393.535v201.566H223.166z"/><circle cx="403.136" cy="496.518" r="5.999" fill="#3f3d56"/><circle cx="419.933" cy="496.518" r="5.999" fill="#3f3d56"/><circle cx="436.731" cy="496.518" r="5.999" fill="#3f3d56"/><path fill="#f2f2f2" d="M598.077 156.683h385.136v51.591H598.077z"/><path fill="none" stroke="#3f3d56" stroke-miterlimit="10" stroke-width="2" d="M587.905 147.376h385.136v51.591H587.905z"/><path fill="#3f3d56" d="M624.499 168.372h69.588v9.598h-69.588zm121.18 0h69.588v9.598h-69.588zm121.18 0h69.588v9.598h-69.588z"/><path fill="#f2f2f2" d="M136.494 181.086h71.117v77.126h-71.117z"/><path fill="none" stroke="#3f3d56" stroke-miterlimit="10" stroke-width="2" d="M145.274 175.499h71.117v77.126h-71.117z"/><circle cx="167.31" cy="214.563" r="5.008" fill="#6c63ff"/><circle cx="181.333" cy="214.563" r="5.008" fill="#6c63ff"/><circle cx="195.356" cy="214.563" r="5.008" fill="#6c63ff"/><path d="M60.394 537.295s36.531 19.935 35.04 26.136c-.809 3.364-20.45-1.661-38.93-8.069-15.583-5.403 8.648-3.01 6.708-6.178-4.239-6.923-2.818-11.889-2.818-11.889zm87.816-5.831s40.18 10.842 40.18 17.22-68.879 0-74.619-5.74 34.44-11.48 34.44-11.48z" fill="#2f2e41"/><path d="M79.332 250.847l17.22 28.7s28.7 74.618 34.44 120.537 40.178 126.278 28.699 137.758-68.88 12.118-68.88 0V302.506z" fill="#2f2e41"/><path d="M79.332 250.847l17.22 28.7s28.7 74.618 34.44 120.537 40.178 126.278 28.699 137.758-68.88 12.118-68.88 0V302.506z" opacity=".1"/><path d="M33.413 227.887v22.96c0 5.74 34.44 5.74 34.44 5.74v-22.96z" fill="#a0616a"/><path d="M50.632 239.367l-16.9 5.421s-17.539 33.483-11.8 51.34 22.96 115.436 22.96 115.436v63.14s-34.439 57.398-17.22 68.878 51.66 23.597 57.4 17.22 11.48-246.816 11.48-246.816v-34.44l-5.74-45.919z" fill="#2f2e41"/><circle cx="80.473" cy="82.685" r="33.618" fill="#2f2e41"/><circle cx="44.054" cy="38.422" r="33.618" fill="#2f2e41"/><path d="M15.057 66.26A33.62 33.62 0 0 0 66.97 48.608 33.62 33.62 0 1 1 1.392 34.822 33.607 33.607 0 0 0 15.057 66.26z" fill="#2f2e41"/><ellipse cx="92.239" cy="79.044" rx="21.851" ry="17.089" fill="#2f2e41"/><circle cx="85.391" cy="89.811" r="28.381" fill="#a0616a"/><path d="M67.852 107.35s5.74 11.48-5.74 17.219 22.96 28.7 22.96 28.7l11.48-40.18z" fill="#a0616a"/><path d="M73.592 130.309s-11.48-17.22-17.22-5.74-34.44 45.92-34.44 80.359 0 34.44 5.74 34.44 22.96-5.74 28.7 0 28.7 0 28.7 0l5.74-51.66s5.74-28.7 0-34.44-17.22-22.96-17.22-22.96z" fill="#6c63ff"/><path d="M44.893 153.269s-17.22 86.098 0 91.838 68.878 28.062 68.878 22.322 5.74-11.48 5.74-11.48 5.74 5.74 5.74 0v-10.842l-57.399-22.96v-57.399s11.48-28.7 0-28.7-22.96 17.22-22.96 17.22z" fill="#6c63ff"/><path d="M119.511 245.107s39.542 0 40.18 11.48-40.18-.638-40.18-.638z" fill="#a0616a"/><ellipse cx="124.094" cy="238.243" rx="25.83" ry="14.35" transform="rotate(-17.485 -440.781 291.862)" fill="#2f2e41"/></svg>